<svg width="85" height="85" viewBox="0 0 85 85" fill="none" xmlns="http://www.w3.org/2000/svg">
<g clip-path="url(#clip0_29_545)">
<path fill-rule="evenodd" clip-rule="evenodd" d="M2.64361 3.78495C8.42576 43.3624 43.9372 62.5864 81.0093 66.9575C81.6459 67.0337 82.1036 67.6117 82.0273 68.2483C81.9511 68.8849 81.3732 69.3425 80.7366 69.2662C42.6259 64.7749 6.2872 44.8057 0.343696 4.11935C0.249824 3.48569 0.689896 2.89604 1.32649 2.80216C1.96015 2.70829 2.54974 3.14836 2.64361 3.78495Z" fill="#981D00"/>
<path fill-rule="evenodd" clip-rule="evenodd" d="M80.177 68.0304C78.5283 66.8247 76.4425 65.3344 76.2108 65.1584C69.9299 60.3883 64.7256 54.8996 60.1433 48.4603C59.7707 47.9381 59.894 47.2105 60.4162 46.838C60.9384 46.4654 61.6659 46.5887 62.0384 47.1108C66.4799 53.3565 71.5257 58.681 77.6188 63.3073C77.9738 63.5772 82.6647 66.9245 83.5624 67.6725C83.9321 67.9776 84.0464 68.2651 84.0669 68.3355C84.1901 68.7052 84.1168 68.9956 84.0171 69.2068C83.9027 69.4444 83.6182 69.7906 83.0667 69.9666C82.4887 70.1485 81.2037 70.2307 80.881 70.2776C76.0142 70.9993 70.5195 71.3807 65.5177 72.7653C60.7476 74.0854 56.4206 76.3208 53.6454 80.8005C53.308 81.3461 52.5893 81.5133 52.0436 81.176C51.498 80.8386 51.3307 80.1199 51.6681 79.5742C54.7718 74.5665 59.5655 71.9996 64.8958 70.524C69.8683 69.1481 75.3131 68.7316 80.177 68.0304Z" fill="#981D00"/>
</g>
<defs>
<clipPath id="clip0_29_545">
<rect width="84.1726" height="84.1726" fill="white" transform="matrix(-1 -8.74228e-08 -8.74228e-08 1 84.1726 0)"/>
</clipPath>
</defs>
</svg>
