<svg width="31" height="34" viewBox="0 0 31 34" fill="none" xmlns="http://www.w3.org/2000/svg">
<path fill-rule="evenodd" clip-rule="evenodd" d="M20.628 2.2714C23.588 3.10295 26.6871 3.52244 29.6934 3.90673C30.3409 3.98729 30.9421 3.53772 30.9883 2.90433C31.0808 2.27048 30.618 1.6908 30.0168 1.61023C27.103 1.24029 24.0969 0.844426 21.2756 0.0438918C20.6744 -0.129735 20.0266 0.2277 19.8416 0.842569C19.6566 1.45698 20.0267 2.09731 20.628 2.2714Z" fill="#981D00"/>
<path fill-rule="evenodd" clip-rule="evenodd" d="M11.6556 14.0609C16.4195 18.9275 21.7845 23.1677 26.4559 28.1649C26.8721 28.6316 27.6122 28.6566 28.0747 28.2209C28.5372 27.7848 28.5832 27.0514 28.1207 26.5847C23.4494 21.5731 18.0843 17.319 13.3205 12.438C12.858 11.9824 12.1181 11.9759 11.6556 12.4241C11.2394 12.8719 11.1931 13.6053 11.6556 14.0609Z" fill="#981D00"/>
<path fill-rule="evenodd" clip-rule="evenodd" d="M2.72864 32.7797C2.58989 29.9942 2.45141 27.2088 2.31266 24.4229C2.31266 23.7849 1.75738 23.2922 1.10986 23.3233C0.462353 23.3548 0.000115324 23.8979 0.000115268 24.5363C0.138867 27.3264 0.277349 30.116 0.416101 32.9056C0.462352 33.5436 1.01745 34.033 1.66496 33.9983C2.26622 33.9636 2.77489 33.4172 2.72864 32.7797Z" fill="#981D00"/>
</svg>
