<svg width="91" height="85" viewBox="0 0 91 85" fill="none" xmlns="http://www.w3.org/2000/svg">
<path d="M90.4125 39.2625C89.692 38.2595 88.8335 37.3631 87.8625 36.6C84.6 33.9375 79.95 32.0625 77.4375 29.1C77.1341 28.553 76.9309 27.9561 76.8375 27.3375C76.0125 23.85 75.75 18.75 74.775 16.725C72.7216 12.1983 69.4823 8.31106 65.4 5.47503C61.2911 2.63579 56.5312 0.881437 51.5625 0.375028C40.431 -0.446986 29.357 2.59968 20.2125 9.00003C10.7165 14.9596 3.90133 24.3692 1.2 35.25C0.637759 38.589 0.637759 41.9985 1.2 45.3375C2.0409 50.2206 3.58177 54.9569 5.775 59.4C7.55675 63.3921 9.96176 67.0756 12.9 70.3125C14.5482 72.0342 16.4441 73.5003 18.525 74.6625C18.525 75.6 18.2625 76.5375 18.1125 77.5125C17.9983 78.0817 17.9231 78.6581 17.8875 79.2375C17.8875 79.8375 17.8875 80.4 17.8875 81C17.8875 82.4625 17.8875 83.8875 17.55 85.35C17.5048 85.5052 17.4915 85.6678 17.5107 85.8283C17.5299 85.9887 17.5813 86.1436 17.6619 86.2837C17.7424 86.4238 17.8504 86.5461 17.9794 86.6434C18.1084 86.7408 18.2557 86.811 18.4125 86.85C18.5651 86.8958 18.7254 86.9107 18.8839 86.8939C19.0423 86.8771 19.1959 86.8289 19.3355 86.7521C19.4751 86.6753 19.5981 86.5714 19.6971 86.4466C19.7962 86.3218 19.8694 86.1785 19.9125 86.025C20.5929 84.6273 21.1816 83.1867 21.675 81.7125C21.8662 81.0623 22.0042 80.3976 22.0875 79.725C22.1813 79.0282 22.1813 78.3219 22.0875 77.625C22.0875 76.3875 22.5 73.4625 20.7 72.7875L19.0125 72.375C16.853 70.9722 14.9504 69.2091 13.3875 67.1625C11.3114 64.4392 9.58537 61.4659 8.25 58.3125C6.57914 54.7162 5.32111 50.9421 4.5 47.0625C3.7319 43.3519 3.7319 39.5232 4.5 35.8125C7.30086 26.0059 13.7211 17.6288 22.4625 12.375C30.8584 6.53703 40.9815 3.70893 51.1875 4.35003C55.5018 4.71163 59.6551 6.15624 63.2625 8.55003C66.8686 10.9491 69.7582 14.2793 71.625 18.1875C72.4875 19.9125 72.9 24.8625 73.725 27.9375C73.9301 29.0058 74.3652 30.0167 75 30.9C77.7 34.1625 82.5 36.1125 86.25 38.8125C86.6625 39.15 87.075 39.4875 87.45 39.8625C84.675 40.95 78.7125 42.3 76.2 42.975C71.2125 44.25 74.4375 46.35 73.3875 57.975C72.939 62.1045 71.2971 66.0138 68.6625 69.225C66.5459 72.1556 63.5098 74.2941 60.0375 75.3C56.3917 76.4052 52.5348 76.6237 48.7875 75.9375C48.5094 75.8815 48.2204 75.9365 47.9821 76.0906C47.7439 76.2448 47.5754 76.4859 47.5125 76.7625C47.4737 76.9008 47.4647 77.0458 47.4862 77.1878C47.5078 77.3298 47.5592 77.4656 47.6373 77.5862C47.7153 77.7068 47.8181 77.8094 47.9388 77.8872C48.0595 77.965 48.1954 78.0163 48.3375 78.0375C49.8393 78.4367 51.3684 78.725 52.9125 78.9C52.7277 80.1432 52.7277 81.4069 52.9125 82.65C53.0572 83.5598 53.296 84.4521 53.625 85.3125C54.15 86.5875 54.825 87.7125 55.35 89.0625C55.4246 89.3758 55.6206 89.6466 55.8949 89.8154C56.1691 89.9842 56.4992 90.0371 56.8125 89.9625C57.1258 89.8879 57.3966 89.6919 57.5654 89.4177C57.7342 89.1434 57.7871 88.8133 57.7125 88.5C57.7125 87.1875 57.7125 85.875 57.4125 84.525C57.3519 83.9809 57.2516 83.442 57.1125 82.9125C57.0023 82.3892 56.8519 81.8752 56.6625 81.375C56.4 80.5875 56.0625 79.875 55.7625 79.125C57.4429 79.0897 59.1148 78.876 60.75 78.4875C65.0948 77.5339 68.9841 75.1263 71.775 71.6625C74.379 67.7817 76.0594 63.3561 76.6875 58.725C77.4176 54.3443 77.2132 49.8587 76.0875 45.5625L76.65 45.375C80.7901 44.5415 84.8833 43.4901 88.9125 42.225C89.4608 42.002 89.9583 41.6704 90.375 41.25C90.6305 40.9844 90.7764 40.6321 90.7833 40.2636C90.7903 39.8951 90.6578 39.5376 90.4125 39.2625Z" fill="#981D00"/>
<path d="M57.6001 36.4125C59.4607 35.3227 61.0725 33.8554 62.3319 32.1052C63.5913 30.3549 64.4704 28.3605 64.9126 26.25C65.0678 24.7231 64.8752 23.1808 64.3491 21.739C63.823 20.2972 62.9772 18.9932 61.8751 17.925C60.4323 16.4237 58.6227 15.325 56.6251 14.7375C56.0096 14.5601 55.3833 14.4224 54.7501 14.325C54.3188 13.6709 53.8157 13.0672 53.2501 12.525C51.2159 10.3363 48.4299 8.99691 45.4501 8.77503C42.4535 8.73866 39.5147 9.6007 37.0126 11.25C35.4385 12.2477 34.0544 13.5175 32.9251 15C31.0574 14.1617 28.943 14.0546 27.0001 14.7C25.0577 15.3763 23.2793 16.4536 21.7804 17.862C20.2816 19.2704 19.0958 20.9784 18.3001 22.875C17.4667 24.7613 17.0817 26.815 17.1751 28.875C16.0149 29.5317 14.9853 30.396 14.1376 31.425C12.5937 33.5997 11.9489 36.2865 12.3376 38.925C12.4727 40.3116 12.9252 41.6484 13.66 42.832C14.3949 44.0155 15.3923 45.014 16.5751 45.75C19.9289 46.9139 23.4503 47.5219 27.0001 47.55H30.7501C29.0251 49.875 28.4251 53.7 30.7501 60.6375C30.7932 60.791 30.8664 60.9343 30.9655 61.0591C31.0645 61.1839 31.1875 61.2878 31.3271 61.3646C31.4668 61.4414 31.6203 61.4896 31.7788 61.5064C31.9372 61.5232 32.0975 61.5083 32.2501 61.4625C32.5255 61.346 32.7495 61.1337 32.8805 60.8648C33.0114 60.596 33.0406 60.2887 32.9626 60C31.2376 54.075 31.4626 50.9625 32.9626 49.0875C33.6067 48.3382 34.4152 47.7478 35.3251 47.3625C38.2416 46.5392 41.1088 45.5501 43.9126 44.4C45.7876 43.5 47.6626 42.4875 49.5001 41.4375C52.3501 39.8625 55.0126 38.1375 57.6001 36.4125ZM51.9001 18.15C51.9674 18.7471 51.8902 19.3515 51.6751 19.9125C51.5529 20.2379 51.3625 20.5334 51.1168 20.7792C50.871 21.025 50.5755 21.2153 50.2501 21.3375C50.0683 21.4633 49.8525 21.5307 49.6314 21.5307C49.4103 21.5307 49.1944 21.4633 49.0126 21.3375C48.6376 20.925 49.0126 20.475 49.0126 20.1C49.6505 19.3365 50.4782 18.7544 51.4126 18.4125L51.9001 18.15ZM42.7876 41.8125C39.6376 43.3875 36.2251 44.0625 33.6376 45.5625C31.4519 45.6866 29.2609 45.6866 27.0751 45.5625C23.9444 45.4729 20.8459 44.9038 17.8876 43.875C17.0787 43.3479 16.4034 42.6398 15.9153 41.8067C15.4272 40.9736 15.1395 40.0384 15.0751 39.075C14.7857 37.1316 15.2704 35.1523 16.4251 33.5625C16.8087 33.1073 17.2499 32.7039 17.7376 32.3625C18.0318 33.307 18.4612 34.2038 19.0126 35.025C19.6817 36.0633 20.5745 36.9389 21.6256 37.5877C22.6767 38.2365 23.8595 38.6422 25.0876 38.775C26.0745 38.792 27.0374 38.4698 27.8154 37.8624C28.5935 37.255 29.1396 36.3991 29.3626 35.4375C29.7543 34.4759 29.874 33.425 29.7087 32.3999C29.5433 31.3747 29.0993 30.4148 28.4251 29.625C27.872 28.913 27.1757 28.3249 26.3812 27.8986C25.5868 27.4723 24.7117 27.2173 23.8126 27.15C22.83 27.0916 21.8441 27.1801 20.8876 27.4125C21.0426 26.367 21.3325 25.346 21.7501 24.375C22.3494 23.0029 23.2246 21.7688 24.3214 20.7495C25.4181 19.7302 26.7129 18.9474 28.1251 18.45C29.0738 18.13 30.1014 18.13 31.0501 18.45C30.3584 20.9756 30.6955 23.6724 31.9876 25.95C32.519 26.6613 33.2855 27.161 34.1507 27.3601C35.0159 27.5593 35.9238 27.4449 36.7126 27.0375C37.3162 26.8139 37.8442 26.4241 38.2357 25.9132C38.6272 25.4022 38.8662 24.791 38.9251 24.15C38.9414 22.4001 38.4881 20.6778 37.6126 19.1625C37.2306 18.524 36.7913 17.9215 36.3001 17.3625C37.1069 16.2958 38.0974 15.3815 39.2251 14.6625C41.071 13.4482 43.241 12.8208 45.4501 12.8625C47.1631 13.0332 48.7652 13.7879 49.9876 15C48.1297 15.7277 46.5619 17.0452 45.5251 18.75C45.0281 19.5543 44.8169 20.5027 44.9258 21.4418C45.0347 22.3809 45.4572 23.2559 46.1251 23.925C46.6648 24.5658 47.3689 25.0475 48.1617 25.3184C48.9545 25.5893 49.8061 25.6391 50.6251 25.4625C51.687 25.2374 52.6784 24.7582 53.5144 24.0659C54.3504 23.3735 55.006 22.4888 55.4251 21.4875C55.7807 20.5547 55.9464 19.5603 55.9126 18.5625C57.1927 18.9562 58.3533 19.6655 59.2876 20.625C60.2546 21.4724 60.9514 22.5853 61.2914 23.8253C61.6314 25.0653 61.5997 26.3779 61.2001 27.6C60.0574 30.1451 58.176 32.2878 55.8001 33.75C53.3251 35.475 50.7376 37.2375 48.3001 38.85C46.3501 39.9375 44.5876 40.95 42.7876 41.8125ZM21.0751 30.5625C21.878 30.3289 22.7161 30.2401 23.5501 30.3C24.0113 30.347 24.4572 30.4916 24.8581 30.7244C25.259 30.9572 25.6057 31.2727 25.8751 31.65C26.0903 31.95 26.2356 32.2942 26.3005 32.6576C26.3654 33.0209 26.3482 33.3942 26.2501 33.75C26.212 33.9249 26.1374 34.0899 26.0313 34.234C25.9252 34.3782 25.7899 34.4984 25.6343 34.5869C25.4786 34.6753 25.3061 34.73 25.1279 34.7473C24.9497 34.7647 24.7699 34.7443 24.6001 34.6875C23.5295 34.3119 22.6175 33.5849 22.0126 32.625C21.594 31.9774 21.2778 31.2691 21.0751 30.525V30.5625Z" fill="#981D00"/>
</svg>
