<svg width="87" height="86" viewBox="0 0 87 86" fill="none" xmlns="http://www.w3.org/2000/svg">
<path fill-rule="evenodd" clip-rule="evenodd" d="M44.1816 58.2649C44.3608 58.2649 44.4683 58.2649 44.5399 58.2649H44.1816ZM44.5399 58.2649C44.7908 57.7632 44.5399 57.9066 44.1816 58.2649C43.8591 58.0858 43.3574 57.6199 42.8558 57.2974C38.8783 54.8607 29.9558 48.8407 27.3758 44.9349C24.9274 41.4063 23.592 37.2253 23.5416 32.9307C23.4104 31.0151 23.9058 29.1088 24.9529 27.4993C26 25.8898 27.5421 24.6645 29.3466 24.0082C31.0519 23.4155 32.8445 23.1127 34.6499 23.1124C36.1957 23.0936 37.6921 23.6563 38.8424 24.6891C39.43 25.3416 39.9355 26.0636 40.3474 26.8391C41.1066 28.1479 41.7886 29.4999 42.3899 30.8882C42.5476 31.2131 42.7859 31.4921 43.082 31.6987C43.3781 31.9054 43.7222 32.0327 44.0815 32.0686C44.4408 32.1046 44.8033 32.0479 45.1344 31.904C45.4656 31.7601 45.7544 31.5338 45.9733 31.2466C45.9733 31.2466 47.6933 28.6307 49.5566 26.4091C50.2028 25.4817 50.9884 24.6597 51.8858 23.9724C52.8666 23.3229 53.9977 22.9357 55.1708 22.8479C56.3439 22.76 57.52 22.9745 58.5866 23.4707C60.893 24.6975 62.7315 26.6493 63.8183 29.0249C65.1381 31.7414 65.3439 34.8663 64.3916 37.7324C62.5763 42.3114 59.7746 46.4344 56.1858 49.8082L49.5208 55.9716C49.2861 56.1844 49.1406 56.4781 49.1136 56.7938C49.0865 57.1094 49.18 57.4236 49.3751 57.6732C49.5703 57.9228 49.8526 58.0893 50.1655 58.1392C50.4783 58.1892 50.7985 58.1188 51.0616 57.9424L58.2283 51.7432C62.2646 48.1703 65.4483 43.7377 67.5449 38.7716C68.2242 36.9627 68.539 35.0374 68.4714 33.1064C68.4037 31.1754 67.9549 29.2768 67.1508 27.5199C65.8101 24.3378 63.4371 21.6997 60.4141 20.0307C58.7766 19.1926 56.9514 18.7888 55.1131 18.8578C53.2748 18.9268 51.485 19.4664 49.9149 20.4249C48.8634 21.1311 47.9217 21.9884 47.1199 22.9691C46.3316 23.9007 45.5074 24.9757 44.7549 25.9432C44.5399 25.5491 44.3249 25.1191 44.0741 24.7249C43.471 23.6252 42.737 22.6025 41.8883 21.6791C40.2991 20.1842 38.2558 19.2635 36.0833 19.0632C33.2868 18.7738 30.4616 19.1546 27.8416 20.1741C25.7736 20.9144 23.9483 22.208 22.5646 23.9139C21.1809 25.6199 20.2918 27.6728 19.9941 29.8491C19.3966 35.8415 21.1289 41.8339 24.8316 46.5832C29.1667 51.1453 34.1685 55.0236 39.6666 58.0857C41.3149 59.0891 42.6766 59.8416 43.2499 60.1641L43.8233 60.4149C44.0291 60.4935 44.2546 60.5045 44.4671 60.4466C44.6797 60.3886 44.8683 60.2646 45.0058 60.0924C45.1085 59.9827 45.1871 59.8527 45.2365 59.7107C45.2859 59.5688 45.3049 59.418 45.2924 59.2683C45.2758 59.0509 45.1955 58.8434 45.0617 58.6713C44.9279 58.4993 44.7465 58.3704 44.5399 58.3008V58.2649Z" fill="#981D00"/>
<path fill-rule="evenodd" clip-rule="evenodd" d="M78.295 13.0791C78.295 13.6166 78.295 14.6916 78.295 16.1608C78.1158 23.7575 77.3633 41.6383 76.9333 47.2283C76.8013 50.4008 76.3207 53.5492 75.5 56.6166C74.9185 58.5045 73.9686 60.2583 72.705 61.7766C69.5421 65.5345 65.9321 68.8918 61.955 71.7741C58.0747 74.7322 53.8664 77.2331 49.4133 79.2275L41.8525 81.9866C36.2587 80.1885 31.0292 77.41 26.4083 73.7808C21.44 70.5057 17.0757 66.396 13.5083 61.6333C11.1792 58.05 10.1758 50.4891 9.70998 42.3191C9.28957 32.986 9.51706 23.6349 10.3908 14.3333C10.3908 13.33 10.7133 12.255 10.7492 11.9683C15.0492 6.84413 23.9716 4.2283 33.8258 3.2608C48.1591 1.89913 64.3558 4.19246 72.7408 8.49247C72.8701 8.56112 73.0117 8.60354 73.1575 8.61728C73.3033 8.63101 73.4503 8.6158 73.5902 8.57251C73.7301 8.52921 73.86 8.4587 73.9725 8.36502C74.085 8.27134 74.1779 8.15634 74.2458 8.02663C74.3751 7.76375 74.3989 7.46133 74.3123 7.18147C74.2257 6.9016 74.0352 6.6655 73.78 6.52163C65.18 1.89913 48.3742 -0.860034 33.575 0.250799C22.4667 1.07497 12.5408 4.15663 7.73915 9.99747C7.1634 11.2631 6.82339 12.6231 6.73582 14.0108C5.7007 23.5292 5.41316 33.1141 5.87582 42.6775C6.30582 51.7791 7.70332 60.1641 10.2475 64.1775C14.1123 69.3997 18.8672 73.8999 24.2942 77.4716C29.5265 81.3591 35.4299 84.2501 41.7091 86C42.5928 85.9635 43.4645 85.7819 44.2892 85.4625C46.4392 84.7458 49.7717 83.42 51.4558 82.7391C56.1518 80.5626 60.5774 77.8447 64.6425 74.6408C68.7377 71.5113 72.443 67.9022 75.6792 63.8908C77.1488 62.0282 78.2439 59.8988 78.9042 57.62C79.7022 54.3332 80.1348 50.9684 80.1942 47.5866C80.5167 41.9608 80.9467 23.9725 81.0183 16.34C81.0183 14.7991 81.0183 13.6883 81.0183 13.1508C81.0321 12.7855 80.9124 12.4276 80.6816 12.144C80.4508 11.8605 80.1247 11.6706 79.7642 11.61C79.5981 11.605 79.4328 11.6341 79.2784 11.6953C79.124 11.7566 78.9837 11.8488 78.8663 11.9663C78.7488 12.0837 78.6566 12.224 78.5953 12.3784C78.5341 12.5328 78.505 12.6981 78.51 12.8641L78.295 13.0791Z" fill="#981D00"/>
</svg>
