<svg width="85" height="90" viewBox="0 0 85 90" fill="none" xmlns="http://www.w3.org/2000/svg">
<path fill-rule="evenodd" clip-rule="evenodd" d="M80.7625 47.55L79.825 45.3C79.6533 44.9174 79.365 44.5988 79.0012 44.39C78.6375 44.1812 78.217 44.0928 77.8 44.1375C76.6 44.325 75.3625 44.775 74.05 44.8875C73.7595 44.8948 73.4726 44.8217 73.2211 44.6761C72.9696 44.5304 72.7633 44.3181 72.625 44.0625C72.4802 43.8117 72.404 43.5271 72.404 43.2375C72.404 42.9479 72.4802 42.6633 72.625 42.4125C73.1193 41.4972 73.7661 40.6729 74.5375 39.975C74.8375 39.675 75.7 38.9625 76.1875 38.4C76.6307 37.9298 76.896 37.3198 76.9375 36.675C76.9743 36.2167 76.9103 35.7559 76.75 35.325C76.75 34.8375 76.1125 34.1625 76.0375 33.8625L73.825 29.325C73.4557 28.6004 73.0424 27.8991 72.5875 27.225C72.2193 26.732 71.6875 26.3863 71.0875 26.25C70.6057 26.1443 70.1068 26.1443 69.625 26.25C69.175 26.25 68.5 26.8125 68.2375 26.925L64.75 28.575C64.4125 28.2 64.075 27.9 64 27.825C63.1757 26.9466 62.1443 26.289 61 25.9125C59.8871 25.5558 58.7109 25.4407 57.55 25.575C55.5595 25.7921 53.731 26.7735 52.45 28.3125C51.812 29.0553 51.333 29.9211 51.0428 30.8564C50.7525 31.7916 50.6571 32.7764 50.7625 33.75C50.847 34.2875 50.9852 34.8151 51.175 35.325C51.259 35.5689 51.3592 35.807 51.475 36.0375L50.05 36.6375L47.8 37.725C45.85 39.4125 46.675 41.2125 48.775 40.3875L51.1375 39.45C51.8125 39.225 52.7125 39.075 53.5 38.8125C53.9614 38.6532 54.402 38.4391 54.8125 38.175C55.1292 37.8966 55.345 37.5214 55.4264 37.1077C55.5077 36.6941 55.4501 36.2651 55.2625 35.8875C55.2625 35.6625 54.85 35.1 54.85 35.0625L54.4 33.4125C54.3931 32.4702 54.7412 31.5598 55.375 30.8625C56.0792 30.2781 56.9728 29.9713 57.8875 30C58.428 29.9853 58.9653 30.0876 59.4625 30.3C59.8986 30.4802 60.2845 30.7633 60.5875 31.125C60.5875 31.125 61.375 32.475 61.675 32.925C61.9055 33.3106 62.2286 33.6325 62.6149 33.8617C63.0012 34.0909 63.4387 34.22 63.8875 34.2375C64.3405 34.1606 64.7738 33.9949 65.1625 33.75L66.3625 33.0375L69.7 31.725L71.7625 35.775L71.95 36.3375L71.3125 36.7875C69.9603 38.2088 68.9924 39.951 68.5 41.85C68.3265 42.6539 68.3376 43.4866 68.5325 44.2855C68.7274 45.0845 69.1009 45.8288 69.625 46.4625C70.0733 47.1147 70.6642 47.6562 71.3529 48.0461C72.0417 48.4359 72.8101 48.6638 73.6 48.7125C74.7897 48.6629 75.9652 48.4354 77.0875 48.0375C77.3875 48.4875 77.8 48.9375 77.8 48.975C78.55 50.4375 79.4125 51.9 80.1625 53.3625C80.35 53.775 80.5 54.225 80.6875 54.6375C79.975 54.975 79.3 55.35 78.55 55.65C77.0125 56.2875 75.4 56.6625 73.825 57.1875C72.25 57.7125 70.6 58.4625 69.0625 59.1L63.3625 62.5875L59.6125 64.425C59.2047 64.609 58.8868 64.9474 58.7285 65.3659C58.5703 65.7843 58.5848 66.2485 58.7688 66.6562C58.9528 67.064 59.2912 67.382 59.7096 67.5402C60.1281 67.6985 60.5922 67.684 61 67.5C64.3849 66.4867 67.6932 65.2335 70.9 63.75C71.9875 63.3 73.1125 62.8875 74.2 62.3625C75.2875 61.8375 76.45 61.2375 77.5 60.6375C78.6138 59.9178 79.6902 59.1418 80.725 58.3125L80.5 62.475C80.5 65.025 80.5 65.7375 77.3125 67.9875C74.9867 69.3982 72.5688 70.651 70.075 71.7375C67.975 72.8625 65.725 73.8375 63.5125 74.775C62.35 75.3 61.1125 75.7875 59.7625 76.275C59.7625 75.3375 60.1 71.4375 58.4125 71.4375C56.725 71.4375 55.4875 72.375 55.975 75.4875C56.1625 76.725 56.35 76.3125 56.7625 77.5125L47.3875 81.2625C43.9375 82.725 40.75 84.4875 37.3375 85.875C35.948 86.4506 34.5194 86.9268 33.0625 87.3C32.6895 87.3845 32.3654 87.6138 32.1615 87.9373C31.9576 88.2608 31.8905 88.652 31.975 89.025C32.0595 89.398 32.2888 89.7221 32.6123 89.926C32.9358 90.13 33.327 90.197 33.7 90.1125C35.3321 89.7692 36.9365 89.3055 38.5 88.725C42.025 87.6 45.3625 86.1 48.85 84.975C53.575 83.325 58.4125 81.9 63.025 80.0625C66.1956 78.7812 69.2774 77.2904 72.25 75.6C74.8704 74.2247 77.3782 72.6448 79.75 70.875C81.3734 69.5291 82.6579 67.8207 83.5 65.8875C83.7093 65.4959 83.8127 65.0564 83.8 64.6125C83.8 63.7875 83.425 62.625 83.3875 62.0625C83.125 50.6625 86.275 60.2625 80.7625 47.55Z" fill="#981D00"/>
<path fill-rule="evenodd" clip-rule="evenodd" d="M28.8625 86.925C26.7633 86.0006 24.9969 84.4566 23.8 82.5C21.8539 79.1493 20.1737 75.6511 18.775 72.0375C17.875 70.0875 17.05 68.1 16.225 66.1125C14.875 63.1125 10.675 52.5 10.5625 52.1625C9.51248 49.575 8.27498 47.025 7.26248 44.4375C6.84998 43.3875 6.43748 42.3375 6.06248 41.25C5.68748 40.1625 5.12498 38.175 4.74998 36.6C4.47428 35.6627 4.24896 34.7114 4.07498 33.75C3.84743 32.9232 3.84202 32.0509 4.05929 31.2214C4.27657 30.3918 4.70884 29.6342 5.31248 29.025C5.98748 28.0875 6.73748 27.225 7.48748 26.3625C7.84186 29.4518 8.36767 32.5191 9.06248 35.55C9.81248 38.8875 11.05 41.475 12.0625 44.85C12.4375 46.05 12.55 46.65 13.225 48.4125C13.4839 48.7859 13.8589 49.0634 14.2917 49.2018C14.7245 49.3402 15.191 49.3318 15.6185 49.1779C16.0461 49.024 16.4108 48.7331 16.6561 48.3506C16.9014 47.9681 17.0135 47.5153 16.975 47.0625C16.4125 45.6 16.2625 45.1125 15.8125 44.025C14.275 40.275 12.85 36.525 11.6875 32.775C11.0125 30 10.3375 27.4125 9.81248 24.75C9.81248 24.75 9.81248 24.525 9.58748 24.375C14.125 22.725 18.625 20.625 23.2 19.0125C25.2191 18.2523 27.286 17.626 29.3875 17.1375C30.7695 16.462 32.2138 15.922 33.7 15.525C34.075 16.2375 34.6375 17.25 35.0875 18.3C35.5166 19.1912 35.8195 20.1378 35.9875 21.1125C35.9875 21.1125 35.9875 21.5625 35.9875 21.1125C35.7366 21.5471 35.4345 21.95 35.0875 22.3125C34.2288 23.2196 33.52 24.2576 32.9875 25.3875C32.6979 26.0366 32.5483 26.7393 32.5483 27.45C32.5483 28.1607 32.6979 28.8635 32.9875 29.5125C33.5065 31.0071 34.4597 32.3128 35.725 33.2625C37.0722 34.2212 38.7423 34.6118 40.375 34.35H41.0875C41.0658 34.4741 41.0658 34.601 41.0875 34.725L42.325 37.8375C43.45 39.7875 45.55 38.025 45.2125 36.45L44.275 33.525C44.044 32.7105 43.7686 31.9093 43.45 31.125C43.3176 30.8245 43.11 30.5631 42.8473 30.3661C42.5846 30.169 42.2756 30.043 41.95 30C41.5921 29.9181 41.2204 29.9181 40.8625 30C40.5625 30 39.475 30.2625 39.5125 30.6375C38.9936 30.5791 38.5073 30.3556 38.125 30C37.598 29.5096 37.2099 28.8886 37 28.2C36.9326 28.0529 36.8977 27.8931 36.8977 27.7313C36.8977 27.5695 36.9326 27.4096 37 27.2625C37.555 26.4465 38.2101 25.7032 38.95 25.05C39.7697 24.1829 40.3623 23.1265 40.675 21.975C40.8118 20.6975 40.6181 19.4062 40.1125 18.225C39.3811 16.2616 38.4776 14.3668 37.4125 12.5625C37.0995 12.0797 36.6527 11.6984 36.1266 11.4653C35.6005 11.2323 35.0179 11.1574 34.45 11.25C32.3082 11.6495 30.192 12.1754 28.1125 12.825C25.9023 13.5441 23.7467 14.4213 21.6625 15.45C16.9 17.5875 12.25 20.2875 7.63748 22.5L6.81248 23.0625C5.57498 24.3375 4.22498 25.65 3.06248 27.075C2.21278 28.0721 1.44764 29.1383 0.774976 30.2625C0.595585 30.6516 0.493689 31.0719 0.474976 31.5C0.474976 32.325 0.662476 33.525 0.662476 34.0125C0.662476 35.175 0.887475 36.3 1.11248 37.4625C1.33748 38.625 1.71248 40.725 2.04998 42.375C2.42859 44.0307 2.91718 45.6593 3.51248 47.25C4.33748 49.5 5.27498 51.75 6.13748 54C7.74998 58.0875 9.32498 62.175 11.0875 66.1875C12.325 68.8875 13.675 71.55 15.1 74.1375C16.8092 77.8198 18.8158 81.3565 21.1 84.7125C22.8539 87.1373 25.3374 88.9375 28.1875 89.85C28.4556 89.9238 28.7401 89.913 29.0018 89.819C29.2636 89.7251 29.49 89.5525 29.65 89.325C29.8621 89.5361 30.1399 89.6684 30.4375 89.7C30.6258 89.7154 30.8153 89.6921 30.9943 89.6317C31.1733 89.5712 31.3381 89.4748 31.4786 89.3484C31.619 89.222 31.7322 89.0683 31.8111 88.8966C31.89 88.7249 31.933 88.5389 31.9375 88.35C32.3582 86.6626 32.6466 84.9449 32.8 83.2125C31.7875 81.2625 30.7 80.625 29.05 82.05C28.6646 83.6465 28.6009 85.3037 28.8625 86.925Z" fill="#981D00"/>
<path fill-rule="evenodd" clip-rule="evenodd" d="M40.7875 6.56255L41.8375 7.91255C42.2125 8.32505 42.5875 8.73755 43 9.11255C46.75 12.8626 46.75 12.8626 47.725 12.5251C49.4125 11.7001 46.975 6.82505 46.675 6.30005C46.3405 5.69569 45.924 5.14044 45.4375 4.65005C44.9913 4.14363 44.488 3.69061 43.9375 3.30005C39.025 -0.449948 38.1625 0.825052 37.825 1.35005C37.4875 1.87505 37.675 2.70005 40.7875 6.56255Z" fill="#981D00"/>
<path fill-rule="evenodd" clip-rule="evenodd" d="M55.4875 11.2501C55.9 11.2501 56.6875 11.6626 58.6375 7.50005C58.8368 7.10716 58.9879 6.69165 59.0875 6.26255C59.0875 5.85005 59.0875 5.43755 59.3125 5.02505C59.6875 1.05005 59.8375 0.525052 58.825 0.0750518C58.4125 0.0750518 57.2125 -0.749948 55.075 3.82505C54.8394 4.24904 54.6627 4.70324 54.55 5.17505C54.4086 5.62569 54.3205 6.09138 54.2875 6.56255C54.2875 6.56255 54.1 11.2501 55.4875 11.2501Z" fill="#981D00"/>
<path fill-rule="evenodd" clip-rule="evenodd" d="M69.3625 15.0001C69.925 14.7376 70.45 14.4376 70.975 14.1376L72.5875 13.1251C76.975 10.2376 77.8375 10.0501 77.35 8.70009C77.125 8.13759 76.7875 6.93759 70.6 9.00009C69.9021 9.24562 69.2249 9.54658 68.575 9.90009C67.9253 10.2688 67.3103 10.6955 66.7375 11.1751C65.8375 12.0001 62.2 15.8251 63.55 17.1001C64.9 18.3751 64.4125 17.5876 69.3625 15.0001Z" fill="#981D00"/>
<path fill-rule="evenodd" clip-rule="evenodd" d="M57.25 64.6501L55.1125 59.1001C55.75 58.7251 56.4625 58.4251 56.5 58.3876C57.7742 57.3197 58.7659 55.9546 59.3875 54.4126C59.8554 53.2204 59.9725 51.9192 59.725 50.6626C59.5923 49.901 59.304 49.1749 58.8782 48.5297C58.4523 47.8845 57.8981 47.334 57.25 46.9126C55.5944 45.8443 53.6206 45.3807 51.6625 45.6001L49.4875 46.0501L49 45.4501L46.6375 41.2501C46.6375 41.2501 45.9625 39.1126 45.325 38.9251C43.525 38.4001 40.1125 41.5876 38.6875 42.4501C38.1326 42.7871 37.5564 43.0877 36.9625 43.3501C36.625 43.3501 35.0875 43.9126 34.4875 44.2126C34.0609 44.4585 33.7304 44.8419 33.55 45.3001C33.4861 45.6346 33.4861 45.9781 33.55 46.3126C33.55 46.8751 34.0375 48.0001 34.0375 48.4501C34.0961 49.4006 33.9291 50.3515 33.55 51.2251C33.2621 51.936 32.7303 52.5209 32.05 52.8751C31.8208 53.0032 31.5626 53.0704 31.3 53.0704C31.0374 53.0704 30.7792 53.0032 30.55 52.8751C29.731 52.4143 29.0059 51.8037 28.4125 51.0751C27.8337 50.3588 27.2072 49.6822 26.5375 49.0501C25.9239 48.5723 25.1769 48.2971 24.4 48.2626C23.8671 48.2938 23.3392 48.3818 22.825 48.5251C21.475 48.8251 20.0875 49.5376 18.8125 49.6876H18.325C17.125 49.2001 13.9 51.3751 14.35 52.6501C14.35 52.9126 18.1 61.5751 19.4125 64.6501C20.3875 67.0876 21.3625 69.4876 22.4125 71.8501C23.1263 73.666 24.0314 75.4008 25.1125 77.0251C25.7858 77.8544 26.5826 78.5753 27.475 79.1626C28.9446 79.9537 30.5719 80.4078 32.2388 80.4921C33.9057 80.5765 35.5705 80.2888 37.1125 79.6501C39.6789 78.9466 42.1865 78.0438 44.6125 76.9501C46.9391 75.8199 49.2048 74.5682 51.4 73.2001C52.3375 72.6376 54.1 71.9251 55.45 71.0626C55.45 71.3626 58.0375 69.5251 58.2625 68.6251C58.348 67.2269 57.994 65.837 57.25 64.6501ZM53.7625 55.2001C53.7625 55.2001 52.075 56.3251 51.5125 56.7751C51.1239 57.053 50.8271 57.4406 50.6601 57.8882C50.4931 58.3358 50.4634 58.8231 50.575 59.2876L52.75 66.0001L53.125 66.6751L52.375 67.0876C51.1 67.8001 49.525 68.4376 48.625 68.9251C46.5625 70.1626 44.4625 71.3251 42.25 72.3751C40.1051 73.402 37.8864 74.2669 35.6125 74.9626C34.5087 75.34 33.3625 75.5793 32.2 75.6751C31.1994 75.7648 30.1924 75.597 29.275 75.1876C28.6646 74.8609 28.1482 74.3832 27.775 73.8001C26.9579 72.6058 26.2309 71.3524 25.6 70.0501C24.1 67.2376 22.7125 64.3876 21.3625 61.5001C20.0125 58.6126 19.3 56.8501 18.2875 54.4876H19.075C25.975 52.6876 23.425 53.1001 24.8125 54.4876C26.0558 55.8624 27.631 56.8953 29.3875 57.4876C30.1242 57.7216 30.9018 57.7991 31.6702 57.7152C32.4387 57.6312 33.1811 57.3876 33.85 57.0001C35.0991 56.2995 36.0961 55.2237 36.7 53.9251C37.527 52.2134 37.8396 50.2985 37.6 48.4126C37.5069 48.0686 37.3406 47.7489 37.1125 47.4751C37.6375 47.2126 38.2 46.7626 38.35 46.6876C39.0463 46.311 39.7222 45.8979 40.375 45.4501C41.5375 44.6251 42.6625 43.6876 43.8625 42.8626L46.1125 47.3251C46.3267 47.9694 46.6162 48.5862 46.975 49.1626C47.2664 49.5297 47.6781 49.7821 48.1375 49.8751C48.6472 49.9505 49.1653 49.9505 49.675 49.8751C50.425 49.8751 51.2875 49.5001 51.9625 49.4626C52.8887 49.4091 53.8113 49.617 54.625 50.0626C54.9362 50.2056 55.2099 50.4189 55.4247 50.6857C55.6394 50.9525 55.7893 51.2655 55.8625 51.6001C55.9453 52.2779 55.8002 52.9639 55.45 53.5501C54.9894 54.1828 54.4327 54.7395 53.8 55.2001H53.7625Z" fill="#981D00"/>
</svg>
