<svg width="91" height="90" viewBox="0 0 91 90" fill="none" xmlns="http://www.w3.org/2000/svg">
<g clip-path="url(#clip0_31_3077)">
<path fill-rule="evenodd" clip-rule="evenodd" d="M21.4499 41.5875C19.9574 43.2848 18.8678 45.2975 18.2624 47.475C17.6249 50.1375 19.9499 54 23.3249 56.8875C25.987 59.4891 29.5409 60.9777 33.2624 61.05C34.4882 60.8855 35.6032 60.2541 36.3749 59.2875C36.9785 58.3813 37.34 57.3356 37.4249 56.25C37.4207 55.6675 37.4964 55.0871 37.6499 54.525C37.8749 54.525 38.3999 54.225 38.8499 54.1125C40.2114 53.9322 41.5542 53.631 42.8624 53.2125C43.6355 52.9448 44.3398 52.5094 44.9249 51.9375C45.5518 51.1649 45.884 50.1948 45.8624 49.2C45.8624 47.6625 46.4999 44.3625 45.6374 43.875C46.2306 43.6306 46.8726 43.5279 47.5124 43.575C48.3368 43.5731 49.1526 43.4074 49.9124 43.0875C50.4781 42.7792 50.9736 42.3566 51.3674 41.8466C51.7612 41.3366 52.0447 40.7504 52.1999 40.125C52.7829 38.2943 52.7543 36.3235 52.1184 34.5104C51.4824 32.6974 50.2737 31.1405 48.6749 30.075C46.8801 28.7708 44.7702 27.9683 42.5624 27.75C41.9269 27.2039 41.4441 26.502 41.1615 25.7131C40.8788 24.9243 40.8059 24.0755 40.9499 23.25C41.0659 22.5616 41.41 21.9322 41.9269 21.4629C42.4438 20.9936 43.1035 20.7117 43.7999 20.6625C45.2538 20.4384 46.7335 20.4384 48.1874 20.6625C49.1963 20.799 50.1976 20.9868 51.1874 21.225C53.8028 21.959 56.3208 23.0039 58.6874 24.3375C58.9211 24.4917 59.2065 24.5467 59.4808 24.4904C59.755 24.4342 59.9957 24.2713 60.1499 24.0375C60.304 23.8038 60.359 23.5184 60.3028 23.2442C60.2465 22.9699 60.0836 22.7292 59.8499 22.575C57.1497 20.2576 54.0487 18.453 50.6999 17.25C48.2865 16.4446 45.7184 16.2134 43.1999 16.575C41.6782 16.8123 40.2884 17.5771 39.2738 18.7357C38.2591 19.8943 37.6843 21.3729 37.6499 22.9125C37.534 24.7831 38.1226 26.6293 39.2999 28.0875H38.4749C38.1666 28.182 37.9084 28.3951 37.7572 28.6799C37.606 28.9648 37.5742 29.298 37.6686 29.6063C37.7631 29.9146 37.9762 30.1728 38.261 30.324C38.5459 30.4752 38.8791 30.507 39.1874 30.4125C40.5375 30.0918 41.9443 30.0945 43.2932 30.4203C44.6421 30.7461 45.895 31.3859 46.9499 32.2875C47.995 33.0338 48.7713 34.0976 49.1632 35.3205C49.5551 36.5435 49.5417 37.8603 49.1249 39.075C48.9374 39.6 48.7499 39.9 48.4874 40.0125C47.7056 40.1469 46.9067 40.1469 46.1249 40.0125C45.4097 40.0391 44.7077 40.2126 44.0626 40.5223C43.4174 40.8319 42.8429 41.2712 42.3749 41.8125C41.9395 42.3527 41.7132 43.0317 41.7374 43.725C41.7374 48.3 44.5499 48.9 39.8999 49.7625C38.6295 49.9348 37.3753 50.2108 36.1499 50.5875C35.5763 50.8349 35.0736 51.2216 34.6874 51.7125C34.1669 52.4502 33.8206 53.2965 33.6749 54.1875C33.6416 54.9473 33.5285 55.7015 33.3374 56.4375C33.3374 56.6625 32.9999 56.775 32.5874 56.85C30.9374 57.1875 28.1999 55.575 25.8374 53.7C24.4868 52.6506 23.3208 51.3832 22.3874 49.95C21.8209 49.3265 21.5243 48.5041 21.5624 47.6625C22.1738 45.3126 23.3741 43.1573 25.0499 41.4C27.8249 38.1 31.3874 35.025 33.4124 32.8125C33.5122 32.7148 33.5914 32.5981 33.6455 32.4693C33.6997 32.3405 33.7275 32.2022 33.7275 32.0625C33.7275 31.9229 33.6997 31.7846 33.6455 31.6558C33.5914 31.527 33.5122 31.4103 33.4124 31.3125C33.3146 31.2128 33.1979 31.1335 33.0691 31.0794C32.9404 31.0253 32.8021 30.9974 32.6624 30.9974C32.5227 30.9974 32.3844 31.0253 32.2556 31.0794C32.1268 31.1335 32.0102 31.2128 31.9124 31.3125C28.2354 34.5391 24.7424 37.9695 21.4499 41.5875Z" fill="#981D00"/>
<path fill-rule="evenodd" clip-rule="evenodd" d="M25.5375 59.5501C23.3536 61.2461 21.3324 63.1418 19.5 65.2126C18.7133 66.1178 17.9986 67.0833 17.3625 68.1001C16.6828 69.0894 16.081 70.13 15.5625 71.2126C14.3449 73.7067 13.317 76.289 12.4875 78.9376C12.4258 79.0828 12.3933 79.2388 12.3919 79.3967C12.3905 79.5545 12.4203 79.711 12.4795 79.8573C12.5387 80.0036 12.6262 80.1368 12.737 80.2493C12.8478 80.3617 12.9796 80.4512 13.125 80.5126C13.2703 80.5743 13.4263 80.6068 13.5841 80.6082C13.7419 80.6096 13.8985 80.5798 14.0448 80.5206C14.1911 80.4614 14.3243 80.3739 14.4367 80.2631C14.5491 80.1523 14.6386 80.0205 14.7 79.8751C15.75 77.8501 16.9875 76.1251 18.225 74.0251C19.4625 71.9251 20.55 70.5751 21.7125 68.8501C23.3303 66.1669 25.0955 63.5754 27 61.0876C27.1926 60.8854 27.3 60.6168 27.3 60.3376C27.3 60.0583 27.1926 59.7898 27 59.5876C26.809 59.3923 26.5494 59.2792 26.2764 59.2722C26.0033 59.2652 25.7383 59.3649 25.5375 59.5501Z" fill="#981D00"/>
<path fill-rule="evenodd" clip-rule="evenodd" d="M76.0498 52.9875C76.0862 50.9403 75.69 48.9086 74.8873 47.025C74.6248 46.5 74.2123 44.85 73.6123 44.7C73.9432 44.3912 74.2445 44.0523 74.5123 43.6875C75.009 42.9322 75.258 42.0409 75.2248 41.1375C75.1539 40.2451 74.8139 39.3952 74.2498 38.7C73.3462 37.7623 72.3816 36.8854 71.3623 36.075L70.9873 35.8125L71.2498 35.55C71.6284 35.1412 71.9558 34.6879 72.2248 34.2C72.5788 33.466 72.6842 32.6367 72.5248 31.8375C72.2874 30.3058 71.5185 28.9066 70.3529 27.885C69.1873 26.8634 67.6994 26.2846 66.1498 26.25C62.3908 26.2695 58.6625 26.9289 55.1248 28.2L51.3748 29.3625C51.1109 29.449 50.8901 29.6331 50.7576 29.8771C50.6252 30.1211 50.5911 30.4066 50.6623 30.675C50.701 30.8084 50.7658 30.9328 50.8529 31.041C50.94 31.1492 51.0477 31.239 51.1698 31.3053C51.2919 31.3716 51.4259 31.4129 51.5641 31.4271C51.7023 31.4412 51.8419 31.4277 51.9748 31.3875L55.7248 30.4125C58.9912 29.3548 62.4193 28.885 65.8498 29.025C66.7711 29.0183 67.6626 29.3511 68.3543 29.9597C69.0459 30.5684 69.4893 31.4103 69.5998 32.325C69.5998 32.625 69.3748 32.775 69.2248 32.9625L68.1748 34.0875C67.8505 34.5 67.6086 34.9711 67.4623 35.475C67.4038 35.7404 67.4036 36.0154 67.4619 36.2809C67.5202 36.5464 67.6355 36.796 67.7998 37.0125C68.1775 37.5049 68.5911 37.9687 69.0373 38.4C69.5248 38.925 70.3123 39.525 70.9873 40.2C71.6623 40.875 71.6623 40.8375 71.6998 41.2125C71.7373 41.5875 71.3248 41.775 71.0998 42.0375C70.6532 42.5298 70.2633 43.0707 69.9373 43.65C69.7465 44.0736 69.6566 44.5357 69.6748 45C69.7092 45.4824 69.8365 45.9535 70.0498 46.3875C70.4248 47.1375 71.2123 48.075 71.4748 48.675C71.9507 50.0597 72.1296 51.5291 71.9998 52.9875C72.0377 54.3627 71.7418 55.7267 71.1373 56.9625C70.8373 57.4875 70.1623 57.5625 69.4873 57.7125C68.3689 57.8828 67.2424 57.9955 66.1123 58.05C62.8873 58.5 60.5623 58.05 58.1998 58.575C56.1974 58.8737 54.2949 59.645 52.6498 60.825C49.2555 63.9179 46.2577 67.4196 43.7248 71.25C39.7335 76.6303 36.1006 82.2675 32.8498 88.125C32.7312 88.2737 32.6497 88.4484 32.6119 88.6347C32.574 88.8211 32.5811 89.0138 32.6323 89.1969C32.6836 89.38 32.7777 89.5483 32.9068 89.688C33.0358 89.8276 33.1963 89.9345 33.3748 90C33.5118 90.0778 33.6632 90.127 33.8197 90.1446C33.9763 90.1621 34.1348 90.1477 34.2856 90.1021C34.4364 90.0565 34.5764 89.9807 34.697 89.8794C34.8176 89.778 34.9164 89.6532 34.9873 89.5125C38.364 83.8864 42.1228 78.4988 46.2373 73.3875C48.6506 69.8463 51.4837 66.6103 54.6748 63.75C55.9208 62.9488 57.3302 62.4363 58.7998 62.25C61.1248 61.9125 63.4498 62.25 66.5998 61.9125C68.428 62.0015 70.2573 61.7602 71.9998 61.2C73.3341 60.3048 74.4102 59.0753 75.1208 57.6343C75.8315 56.1932 76.1518 54.591 76.0498 52.9875Z" fill="#981D00"/>
<path fill-rule="evenodd" clip-rule="evenodd" d="M84.7125 74.775C83.6625 72.6375 82.5375 70.5375 81.375 68.475C79.6125 65.4375 78.4125 63.9 76.8375 60.7125C75.5625 59.25 74.3625 60.4875 74.7375 61.9875C75.7123 65.2157 76.967 68.3526 78.4875 71.3625C79.5375 73.5 80.7375 75.5625 81.9 77.625C83.625 80.7 85.65 83.6625 87.0375 86.8875C87.0851 87.048 87.1659 87.1968 87.2745 87.3243C87.3831 87.4517 87.5172 87.5551 87.6681 87.6276C87.8191 87.7001 87.9835 87.7402 88.1509 87.7454C88.3183 87.7506 88.4849 87.7206 88.64 87.6575C88.7951 87.5944 88.9353 87.4996 89.0516 87.379C89.1678 87.2585 89.2576 87.115 89.315 86.9577C89.3725 86.8004 89.3964 86.6328 89.3851 86.4657C89.3739 86.2986 89.3279 86.1357 89.25 85.9875C88.0118 82.1448 86.4953 78.3973 84.7125 74.775Z" fill="#981D00"/>
<path fill-rule="evenodd" clip-rule="evenodd" d="M62.9999 80.5501C62.4891 79.1621 61.8618 77.8199 61.1249 76.5376C59.7749 74.4284 58.1759 72.4895 56.3624 70.7626C56.1909 70.5371 55.9382 70.3874 55.6581 70.3454C55.378 70.3034 55.0925 70.3723 54.8624 70.5376C54.6779 70.7438 54.5759 71.0109 54.5759 71.2876C54.5759 71.5643 54.6779 71.8313 54.8624 72.0376C55.9499 73.9501 56.6249 75.7876 57.4874 77.7751C58.0874 79.0501 58.6874 80.3251 59.3624 81.5251C60.4874 83.6251 61.7999 85.6126 63.1124 87.7126C63.1806 87.8561 63.2765 87.9846 63.3948 88.0907C63.513 88.1969 63.6511 88.2785 63.8011 88.3308C63.9511 88.3831 64.11 88.4051 64.2686 88.3956C64.4272 88.386 64.5823 88.3451 64.7249 88.2751C65.0079 88.13 65.2241 87.8816 65.3289 87.5814C65.4336 87.2812 65.4188 86.9522 65.2874 86.6626C64.4999 84.6001 63.7874 82.5001 62.9999 80.5501Z" fill="#981D00"/>
<path fill-rule="evenodd" clip-rule="evenodd" d="M12.9374 25.9125C12.9374 26.85 12.9374 27.7875 13.1999 28.725L13.3874 30.5625C13.4356 31.0316 13.5234 31.4958 13.6499 31.95C13.8 32.2176 14.0173 32.4414 14.2804 32.5993C14.5434 32.7571 14.8432 32.8435 15.1499 32.85C15.4757 32.867 15.7992 32.787 16.0795 32.6201C16.3599 32.4532 16.5845 32.207 16.7249 31.9125C17.679 29.4046 18.4192 26.8203 18.9374 24.1875C19.0727 23.7294 19.2615 23.2889 19.4999 22.875C19.9325 22.2446 20.4498 21.6768 21.0374 21.1875C22.8374 19.7625 24.9749 18.975 26.8499 17.4375C27.0731 17.2599 27.2578 17.0386 27.3927 16.7871C27.5276 16.5357 27.6098 16.2595 27.6344 15.9752C27.6589 15.691 27.6253 15.4047 27.5356 15.1339C27.4458 14.8631 27.3018 14.6134 27.1124 14.4C25.5094 13.8384 23.9646 13.1226 22.4999 12.2625C21.9561 11.9062 21.4747 11.4627 21.0749 10.95C20.4126 10.179 19.8806 9.305 19.4999 8.36253C19.0888 7.2737 18.7505 6.15874 18.4874 5.02503C18.4874 4.35003 18.4874 2.92503 18.0374 1.98753C17.9634 1.53376 17.7975 1.09989 17.5499 0.712527C17.4065 0.5123 17.2218 0.345114 17.0083 0.222215C16.7949 0.099316 16.5576 0.0235545 16.3124 2.6538e-05C16.0648 -0.0314753 15.8134 -0.00370312 15.5786 0.0810547C15.3439 0.165812 15.1327 0.30513 14.9624 0.487527C14.6953 0.707726 14.5103 1.01162 14.4374 1.35003C14.4374 1.35003 14.4374 1.98753 14.4374 2.17503L14.0249 3.52503L12.3374 7.76253C11.6035 9.4892 10.394 10.9718 8.8499 12.0375C7.27844 13.0307 5.39412 13.4049 3.5624 13.0875C3.42696 13.0602 3.28745 13.0599 3.15189 13.0866C3.01633 13.1133 2.88737 13.1665 2.7724 13.2432C2.65744 13.3198 2.55873 13.4184 2.48194 13.5332C2.40515 13.6481 2.35178 13.777 2.3249 13.9125C1.5749 17.6625 6.0749 17.6625 9.1874 19.95C10.7385 21.0054 11.9294 22.5103 12.5999 24.2625C12.7519 24.8037 12.8647 25.3551 12.9374 25.9125ZM5.0999 15.375C6.84202 15.4505 8.57028 15.0347 10.0874 14.175C12.1458 12.9785 13.8231 11.2232 14.9249 9.11253L15.5249 7.87503C15.7131 8.75842 15.9765 9.62408 16.3124 10.4625C16.7257 11.5587 17.3078 12.5835 18.0374 13.5C18.5442 14.1506 19.1229 14.7419 19.7624 15.2625C20.2577 15.6552 20.7845 16.0064 21.3374 16.3125C20.3805 16.8421 19.4653 17.4439 18.5999 18.1125C17.6628 18.8698 16.8636 19.7832 16.2374 20.8125C15.8563 21.4667 15.5422 22.1577 15.2999 22.875C14.3203 20.7453 12.7273 18.9564 10.7249 17.7375C9.0063 16.6199 7.10111 15.8197 5.0999 15.375Z" fill="#981D00"/>
</g>
<defs>
<clipPath id="clip0_31_3077">
<rect width="90" height="90" fill="white" transform="translate(0.75)"/>
</clipPath>
</defs>
</svg>
